<?xml version="1.0" standalone="no"?>
<!DOCTYPE svg PUBLIC "-//W3C//DTD SVG 20010904//EN"
 "http://www.w3.org/TR/2001/REC-SVG-20010904/DTD/svg10.dtd">
<svg version="1.0" xmlns="http://www.w3.org/2000/svg"
 width="500.000000pt" height="500.000000pt" viewBox="0 0 500.000000 500.000000"
 preserveAspectRatio="xMidYMid meet">

<g transform="translate(0.000000,500.000000) scale(0.100000,-0.100000)"
fill="#000000" stroke="none">
<path d="M0 2500 l0 -2500 2500 0 2500 0 0 2500 0 2500 -2500 0 -2500 0 0
-2500z m2425 1293 c-15 -15 -49 -64 -75 -109 -26 -44 -92 -145 -145 -224 -101
-149 -138 -220 -151 -285 -11 -59 -22 -22 -30 96 -9 160 27 296 106 391 53 64
229 157 299 158 l24 0 -28 -27z m327 -4 c130 -33 284 -113 342 -178 23 -26 23
-26 -48 -1 -31 10 -103 29 -159 41 -130 28 -276 22 -416 -16 -52 -14 -96 -23
-99 -21 -7 8 53 97 85 129 73 69 156 82 295 46z m-718 -146 c-13 -27 -30 -89
-38 -139 -16 -102 -29 -133 -93 -216 -43 -57 -79 -126 -69 -135 2 -2 13 0 24
6 35 18 97 13 127 -11 44 -35 74 -135 45 -153 -5 -3 -10 -1 -10 4 0 17 -30 13
-57 -9 -50 -39 -113 -11 -113 50 0 32 27 54 54 44 22 -8 20 -41 -1 -48 -11 -3
-7 -4 7 -3 48 4 32 77 -17 77 -8 0 -25 -11 -38 -25 -37 -37 -35 -107 6 -168
52 -79 170 -167 224 -167 19 0 19 -7 -1 -61 -8 -24 -17 -80 -20 -124 -6 -90
11 -138 57 -164 39 -21 79 -8 79 27 0 38 -13 54 -40 50 -32 -4 -39 -29 -8 -26
17 2 23 -2 23 -17 0 -24 -38 -33 -61 -15 -31 26 -10 95 31 102 10 2 22 13 25
25 5 21 7 20 37 -16 74 -88 47 -173 -58 -187 l-48 -6 21 -28 c23 -31 43 -42
142 -76 85 -29 121 -56 190 -143 35 -43 71 -76 98 -90 l43 -21 -46 0 c-64 0
-193 35 -248 67 -61 35 -163 134 -202 195 -71 110 -99 247 -80 383 l10 70 -32
25 c-73 57 -185 178 -206 223 -74 153 -68 292 21 476 35 72 57 101 135 179 51
50 97 92 102 92 4 0 -2 -21 -15 -47z m-310 -331 c-42 -131 -56 -262 -45 -437
2 -39 -3 -86 -16 -134 -19 -68 -20 -71 -27 -41 -19 98 2 375 39 510 16 58 66
183 70 178 2 -2 -8 -36 -21 -76z m271 -52 c8 -25 -10 -50 -36 -50 -20 0 -36
40 -24 59 11 19 53 12 60 -9z m-255 -289 c0 -29 67 -133 113 -175 23 -21 65
-54 93 -72 l51 -33 -13 -73 c-17 -96 -17 -199 0 -273 8 -33 13 -61 12 -63 -2
-1 -22 18 -45 44 -52 55 -78 112 -87 186 l-6 55 -38 -14 c-37 -15 -41 -14 -94
13 -42 21 -55 32 -50 44 4 8 9 28 13 45 7 32 60 75 93 75 17 0 15 5 -12 39
-46 57 -73 165 -54 215 8 20 24 11 24 -13z m267 -104 c34 -61 33 -67 -10 -39
-37 25 -56 52 -57 80 0 41 32 21 67 -41z m117 -318 c-3 -5 -12 -9 -20 -9 -10
0 -14 13 -14 49 0 81 12 93 27 27 7 -32 10 -62 7 -67z m1222 -63 c-52 -118
-182 -278 -257 -316 -81 -42 -171 -33 -312 32 -100 46 -102 54 -10 62 113 10
197 33 290 77 85 41 213 131 273 194 44 46 50 28 16 -49z m-1500 -98 c81 -114
159 -195 261 -268 91 -65 88 -73 -5 -17 -124 74 -314 268 -381 388 l-24 42 46
-32 c27 -18 70 -65 103 -113z m554 -19 c239 -151 453 -258 551 -274 22 -4 39
-10 39 -15 0 -4 -37 -20 -82 -35 -116 -39 -212 -40 -291 -3 -112 53 -250 212
-312 362 l-17 40 24 -17 c12 -9 52 -35 88 -58z m-96 -42 c9 -15 7 -21 -8 -32
-35 -26 -74 13 -44 43 16 16 38 12 52 -11z m-1224 -619 c13 -35 32 -83 42
-108 l20 -45 42 105 42 105 42 3 c41 3 58 -12 27 -24 -12 -5 -15 -27 -15 -109
0 -82 3 -104 15 -109 32 -12 13 -26 -35 -26 -38 0 -50 4 -50 15 0 8 7 15 15
15 12 0 15 16 15 85 0 47 -2 85 -4 85 -1 0 -21 -45 -42 -100 -27 -68 -44 -100
-53 -98 -8 2 -32 45 -53 97 -21 52 -41 97 -44 100 -3 3 -3 -32 1 -79 5 -56 12
-88 21 -93 28 -16 13 -27 -36 -27 -38 0 -50 4 -50 15 0 8 7 15 15 15 12 0 15
18 15 105 0 87 -3 105 -15 105 -8 0 -15 7 -15 15 0 11 11 15 39 15 38 0 39 -1
61 -62z m510 27 c0 -24 -5 -35 -15 -35 -8 0 -15 9 -15 20 0 18 -7 20 -56 20
l-55 0 3 -42 3 -43 53 -3 c70 -4 65 -26 -6 -30 l-52 -3 0 -45 0 -44 54 0 c46
0 54 3 59 21 8 31 31 18 35 -19 l3 -32 -110 0 c-74 0 -111 4 -111 11 0 6 9 13
20 16 18 5 20 14 20 108 0 96 -1 103 -21 108 -12 3 -18 10 -14 16 4 7 46 11
106 11 l99 0 0 -35z m261 19 c17 -8 37 -30 45 -49 30 -72 9 -162 -45 -189 -41
-22 -171 -22 -171 -1 0 8 7 15 15 15 12 0 15 18 15 105 0 87 -3 105 -15 105
-8 0 -15 7 -15 15 0 21 130 21 171 -1z m239 1 c0 -8 -7 -15 -15 -15 -12 0 -15
-18 -15 -105 0 -87 3 -105 15 -105 8 0 15 -7 15 -15 0 -11 -12 -15 -50 -15
-48 0 -67 14 -35 26 23 9 22 209 -1 218 -28 11 -4 26 42 26 32 0 44 -4 44 -15z
m269 -105 c25 -66 51 -122 58 -124 28 -11 11 -26 -28 -26 -39 0 -41 2 -35 24
11 43 -2 56 -55 56 -39 0 -50 -4 -60 -21 -8 -15 -8 -24 0 -32 20 -20 12 -27
-29 -27 -37 0 -52 11 -31 25 5 3 30 59 56 125 34 87 51 120 63 120 12 0 29
-33 61 -120z m271 20 c34 -55 64 -100 66 -100 2 0 4 38 4 85 0 69 -3 85 -15
85 -8 0 -15 7 -15 15 0 11 12 15 44 15 46 0 70 -15 42 -26 -13 -5 -16 -26 -16
-125 0 -117 0 -119 -22 -119 -18 1 -36 23 -85 103 l-63 102 0 -86 c0 -68 3
-88 15 -93 32 -12 13 -26 -35 -26 -48 0 -67 14 -35 26 12 5 15 27 15 110 0 86
-3 104 -15 104 -8 0 -15 7 -15 15 0 10 10 15 34 15 33 0 37 -5 96 -100z m398
84 c33 -23 52 -67 52 -119 0 -85 -43 -135 -117 -135 -112 0 -162 163 -73 243
35 32 101 37 138 11z m320 0 c25 -17 30 -64 7 -64 -8 0 -15 9 -15 19 0 21 -19
31 -55 31 -37 0 -55 -10 -70 -41 -28 -54 -11 -147 30 -163 43 -16 95 -3 95 25
0 10 7 19 15 19 23 0 18 -47 -7 -64 -12 -9 -42 -16 -66 -16 -115 0 -163 167
-71 244 36 30 101 35 137 10z m212 6 c0 -6 -7 -13 -15 -16 -10 -4 -15 -20 -15
-50 l0 -44 65 0 65 0 0 45 c0 33 -4 45 -15 45 -8 0 -15 7 -15 15 0 11 12 15
44 15 46 0 70 -15 42 -26 -23 -9 -24 -209 -1 -218 32 -12 13 -26 -35 -26 -38
0 -50 4 -50 15 0 8 7 15 15 15 11 0 15 12 15 45 l0 45 -65 0 -65 0 0 -44 c0
-30 5 -46 15 -50 32 -12 13 -26 -35 -26 -48 0 -67 14 -35 26 12 5 15 27 15
110 0 86 -3 104 -15 104 -8 0 -15 7 -15 15 0 11 12 15 50 15 28 0 50 -5 50
-10z m450 -25 c0 -24 -5 -35 -15 -35 -8 0 -15 9 -15 20 0 18 -7 20 -56 20
l-55 0 3 -42 3 -43 53 -3 c70 -4 65 -26 -6 -30 l-52 -3 0 -45 0 -44 54 0 c46
0 54 3 59 21 8 31 31 18 35 -19 l3 -32 -110 0 c-74 0 -111 4 -111 11 0 6 9 13
20 16 18 5 20 14 20 108 0 96 -1 103 -21 108 -12 3 -18 10 -14 16 4 7 46 11
106 11 l99 0 0 -35z m-1650 -385 c0 -53 4 -90 10 -90 6 0 10 -4 10 -9 0 -5
-27 -10 -60 -10 -67 0 -80 11 -80 72 0 42 29 71 65 65 21 -4 25 -1 25 18 0 13
-4 24 -10 24 -5 0 -10 5 -10 10 0 6 11 10 25 10 25 0 25 -1 25 -90z m184 14
c9 -8 16 -26 16 -40 0 -22 -4 -24 -45 -24 -25 0 -45 -4 -45 -9 0 -17 31 -33
55 -28 16 3 24 0 22 -7 -2 -6 -21 -11 -43 -11 -33 0 -41 4 -52 28 -33 69 41
142 92 91z m131 -2 c-3 -11 1 -34 9 -52 l13 -33 12 35 c6 19 9 42 5 51 -5 13
0 17 21 17 22 0 26 -3 20 -17 -4 -10 -16 -42 -27 -70 -12 -29 -26 -53 -32 -53
-6 0 -22 28 -36 62 -14 35 -26 66 -28 70 -2 5 8 8 23 8 21 0 25 -4 20 -18z
m-515 -6 c0 -8 -17 -21 -37 -29 l-38 -15 38 -15 c40 -17 53 -43 15 -31 -42 12
-78 34 -78 47 0 9 57 42 98 56 1 1 2 -5 2 -13z m775 -47 c0 -7 -24 -23 -52
-36 -41 -17 -53 -19 -53 -9 0 8 16 20 35 26 19 6 35 15 35 19 0 4 -16 13 -35
20 -19 7 -35 18 -35 26 0 11 12 8 53 -9 28 -13 52 -29 52 -37z"/>
<path d="M1750 1635 l0 -105 35 0 c57 0 85 35 85 105 0 70 -28 105 -85 105
l-35 0 0 -105z"/>
<path d="M2277 1671 c-9 -27 -17 -51 -17 -55 0 -3 18 -6 40 -6 l40 0 -21 53
c-11 28 -22 53 -23 54 -1 1 -9 -20 -19 -46z"/>
<path d="M2911 1721 c-42 -42 -35 -157 10 -181 33 -18 80 -8 102 22 27 37 27
109 0 146 -26 35 -83 42 -112 13z"/>
<path d="M2274 1347 c-3 -8 -4 -30 -2 -49 2 -28 7 -33 28 -33 23 0 25 4 25 45
0 39 -3 45 -23 48 -13 2 -24 -3 -28 -11z"/>
<path d="M2482 1348 c-20 -20 -14 -28 19 -28 24 0 30 4 27 17 -4 22 -29 28
-46 11z"/>
</g>
</svg>
